<mxfile host="app.diagrams.net" modified="2024-05-06T11:59:11.042Z" agent="Mozilla/5.0 (Windows NT 10.0; Win64; x64) AppleWebKit/537.36 (KHTML, like Gecko) Chrome/124.0.0.0 Safari/537.36" etag="QMxysbLsePGpqWGp-AVK" version="24.3.1" type="github">
  <diagram name="Page-1" id="0783ab3e-0a74-02c8-0abd-f7b4e66b4bec">
    <mxGraphModel dx="2011" dy="1119" grid="1" gridSize="10" guides="1" tooltips="1" connect="1" arrows="1" fold="1" page="0" pageScale="1" pageWidth="850" pageHeight="1100" background="none" math="0" shadow="0">
      <root>
        <mxCell id="0" />
        <mxCell id="1" parent="0" />
        <mxCell id="1c1d494c118603dd-1" value="User Activity" style="swimlane;html=1;childLayout=stackLayout;startSize=20;rounded=0;shadow=0;comic=0;labelBackgroundColor=none;strokeWidth=1;fontFamily=Verdana;fontSize=12;align=center;" parent="1" vertex="1">
          <mxGeometry x="40" width="760" height="880" as="geometry" />
        </mxCell>
        <mxCell id="GuyPCth5NAUrWhtiXJ_c-11" style="edgeStyle=none;curved=0;rounded=0;orthogonalLoop=1;jettySize=auto;html=1;entryX=1;entryY=0.5;entryDx=0;entryDy=0;fontSize=12;startSize=8;endSize=8;exitX=1;exitY=0.5;exitDx=0;exitDy=0;exitPerimeter=0;" edge="1" parent="1c1d494c118603dd-1" source="GuyPCth5NAUrWhtiXJ_c-9" target="GuyPCth5NAUrWhtiXJ_c-10">
          <mxGeometry relative="1" as="geometry">
            <Array as="points">
              <mxPoint x="750" y="70" />
              <mxPoint x="750" y="125" />
            </Array>
          </mxGeometry>
        </mxCell>
        <mxCell id="GuyPCth5NAUrWhtiXJ_c-12" style="edgeStyle=none;curved=1;rounded=0;orthogonalLoop=1;jettySize=auto;html=1;fontSize=12;startSize=8;endSize=8;entryX=1;entryY=0.5;entryDx=0;entryDy=0;fillColor=#d5e8d4;strokeColor=#82b366;" edge="1" parent="1c1d494c118603dd-1" source="GuyPCth5NAUrWhtiXJ_c-10" target="GuyPCth5NAUrWhtiXJ_c-37">
          <mxGeometry relative="1" as="geometry">
            <mxPoint x="220.00000000000023" y="200.0000000000001" as="targetPoint" />
            <Array as="points">
              <mxPoint x="450" y="170" />
            </Array>
          </mxGeometry>
        </mxCell>
        <mxCell id="GuyPCth5NAUrWhtiXJ_c-17" value="yes" style="edgeLabel;html=1;align=center;verticalAlign=middle;resizable=0;points=[];fontSize=12;" vertex="1" connectable="0" parent="GuyPCth5NAUrWhtiXJ_c-12">
          <mxGeometry x="-0.2619" y="-1" relative="1" as="geometry">
            <mxPoint x="17" y="-25" as="offset" />
          </mxGeometry>
        </mxCell>
        <mxCell id="GuyPCth5NAUrWhtiXJ_c-24" style="edgeStyle=none;curved=0;rounded=0;orthogonalLoop=1;jettySize=auto;html=1;fontSize=12;startSize=8;endSize=8;exitX=1;exitY=0.5;exitDx=0;exitDy=0;exitPerimeter=0;entryX=1;entryY=0.5;entryDx=0;entryDy=0;" edge="1" parent="1c1d494c118603dd-1" source="GuyPCth5NAUrWhtiXJ_c-20" target="GuyPCth5NAUrWhtiXJ_c-23">
          <mxGeometry relative="1" as="geometry">
            <mxPoint x="740" y="179" as="sourcePoint" />
            <mxPoint x="510" y="249" as="targetPoint" />
            <Array as="points">
              <mxPoint x="750" y="170" />
              <mxPoint x="750" y="236" />
            </Array>
          </mxGeometry>
        </mxCell>
        <mxCell id="GuyPCth5NAUrWhtiXJ_c-27" style="edgeStyle=none;curved=0;rounded=0;orthogonalLoop=1;jettySize=auto;html=1;fontSize=12;startSize=8;endSize=8;fillColor=#f8cecc;strokeColor=#b85450;entryX=1;entryY=1;entryDx=0;entryDy=0;" edge="1" parent="1c1d494c118603dd-1" source="GuyPCth5NAUrWhtiXJ_c-10" target="GuyPCth5NAUrWhtiXJ_c-33">
          <mxGeometry relative="1" as="geometry">
            <mxPoint x="290" y="130" as="targetPoint" />
            <Array as="points">
              <mxPoint x="420" y="129" />
            </Array>
          </mxGeometry>
        </mxCell>
        <mxCell id="GuyPCth5NAUrWhtiXJ_c-28" value="no" style="edgeLabel;html=1;align=center;verticalAlign=middle;resizable=0;points=[];fontSize=12;" vertex="1" connectable="0" parent="GuyPCth5NAUrWhtiXJ_c-27">
          <mxGeometry x="-0.2358" y="-3" relative="1" as="geometry">
            <mxPoint x="36" y="3" as="offset" />
          </mxGeometry>
        </mxCell>
        <mxCell id="GuyPCth5NAUrWhtiXJ_c-36" style="edgeStyle=none;curved=1;rounded=0;orthogonalLoop=1;jettySize=auto;html=1;fontSize=12;startSize=8;endSize=8;" edge="1" parent="1c1d494c118603dd-1" source="GuyPCth5NAUrWhtiXJ_c-33" target="GuyPCth5NAUrWhtiXJ_c-9">
          <mxGeometry relative="1" as="geometry" />
        </mxCell>
        <mxCell id="GuyPCth5NAUrWhtiXJ_c-39" style="edgeStyle=none;curved=1;rounded=0;orthogonalLoop=1;jettySize=auto;html=1;entryX=0;entryY=0;entryDx=0;entryDy=20;entryPerimeter=0;fontSize=12;startSize=8;endSize=8;" edge="1" parent="1c1d494c118603dd-1" source="GuyPCth5NAUrWhtiXJ_c-37" target="GuyPCth5NAUrWhtiXJ_c-20">
          <mxGeometry relative="1" as="geometry">
            <Array as="points">
              <mxPoint x="290" y="190" />
            </Array>
          </mxGeometry>
        </mxCell>
        <mxCell id="GuyPCth5NAUrWhtiXJ_c-40" style="edgeStyle=none;curved=1;rounded=0;orthogonalLoop=1;jettySize=auto;html=1;entryX=0;entryY=0.5;entryDx=0;entryDy=0;fontSize=12;startSize=8;endSize=8;fillColor=#f8cecc;strokeColor=#b85450;" edge="1" parent="1c1d494c118603dd-1" source="GuyPCth5NAUrWhtiXJ_c-23" target="GuyPCth5NAUrWhtiXJ_c-37">
          <mxGeometry relative="1" as="geometry">
            <Array as="points">
              <mxPoint x="400" y="250" />
              <mxPoint x="150" y="150" />
            </Array>
          </mxGeometry>
        </mxCell>
        <mxCell id="GuyPCth5NAUrWhtiXJ_c-41" value="no" style="edgeLabel;html=1;align=center;verticalAlign=middle;resizable=0;points=[];fontSize=12;" vertex="1" connectable="0" parent="GuyPCth5NAUrWhtiXJ_c-40">
          <mxGeometry x="-0.8255" y="1" relative="1" as="geometry">
            <mxPoint x="16" y="-18" as="offset" />
          </mxGeometry>
        </mxCell>
        <mxCell id="GuyPCth5NAUrWhtiXJ_c-46" style="edgeStyle=none;curved=1;rounded=0;orthogonalLoop=1;jettySize=auto;html=1;fontSize=12;startSize=8;endSize=8;exitX=0.5;exitY=1;exitDx=0;exitDy=0;fillColor=#d5e8d4;strokeColor=#82b366;entryX=0.75;entryY=0;entryDx=0;entryDy=0;" edge="1" parent="1c1d494c118603dd-1" source="GuyPCth5NAUrWhtiXJ_c-23" target="GuyPCth5NAUrWhtiXJ_c-76">
          <mxGeometry relative="1" as="geometry">
            <mxPoint x="290" y="470" as="targetPoint" />
            <Array as="points">
              <mxPoint x="460" y="280" />
              <mxPoint x="550" y="280" />
              <mxPoint x="550" y="720" />
              <mxPoint x="280" y="760" />
            </Array>
          </mxGeometry>
        </mxCell>
        <mxCell id="GuyPCth5NAUrWhtiXJ_c-47" value="yes" style="edgeLabel;html=1;align=center;verticalAlign=middle;resizable=0;points=[];fontSize=12;" vertex="1" connectable="0" parent="GuyPCth5NAUrWhtiXJ_c-46">
          <mxGeometry x="-0.607" relative="1" as="geometry">
            <mxPoint x="26" y="-83" as="offset" />
          </mxGeometry>
        </mxCell>
        <mxCell id="GuyPCth5NAUrWhtiXJ_c-87" style="edgeStyle=none;curved=1;rounded=0;orthogonalLoop=1;jettySize=auto;html=1;fontSize=12;startSize=8;endSize=8;entryX=0;entryY=0.5;entryDx=0;entryDy=0;" edge="1" parent="1c1d494c118603dd-1" source="GuyPCth5NAUrWhtiXJ_c-31" target="GuyPCth5NAUrWhtiXJ_c-114">
          <mxGeometry relative="1" as="geometry">
            <mxPoint x="630" y="340" as="targetPoint" />
          </mxGeometry>
        </mxCell>
        <mxCell id="1c1d494c118603dd-2" value="User Interface" style="swimlane;html=1;startSize=20;" parent="1c1d494c118603dd-1" vertex="1">
          <mxGeometry y="20" width="360" height="860" as="geometry" />
        </mxCell>
        <mxCell id="GuyPCth5NAUrWhtiXJ_c-2" style="edgeStyle=none;curved=1;rounded=0;orthogonalLoop=1;jettySize=auto;html=1;fontSize=12;startSize=8;endSize=8;entryX=0.5;entryY=0;entryDx=0;entryDy=0;" edge="1" parent="1c1d494c118603dd-2" source="60571a20871a0731-4" target="GuyPCth5NAUrWhtiXJ_c-72">
          <mxGeometry relative="1" as="geometry">
            <mxPoint x="69.48223304703367" y="98.48223304703367" as="targetPoint" />
          </mxGeometry>
        </mxCell>
        <mxCell id="60571a20871a0731-4" value="" style="ellipse;whiteSpace=wrap;html=1;rounded=0;shadow=0;comic=0;labelBackgroundColor=none;strokeWidth=1;fillColor=#000000;fontFamily=Verdana;fontSize=12;align=center;" parent="1c1d494c118603dd-2" vertex="1">
          <mxGeometry x="20" y="49" width="40" height="40" as="geometry" />
        </mxCell>
        <mxCell id="GuyPCth5NAUrWhtiXJ_c-4" style="edgeStyle=none;curved=1;rounded=0;orthogonalLoop=1;jettySize=auto;html=1;entryX=0;entryY=0.5;entryDx=0;entryDy=0;fontSize=12;startSize=8;endSize=8;exitX=0.75;exitY=1;exitDx=0;exitDy=0;" edge="1" parent="1c1d494c118603dd-2" source="GuyPCth5NAUrWhtiXJ_c-72" target="GuyPCth5NAUrWhtiXJ_c-3">
          <mxGeometry relative="1" as="geometry">
            <mxPoint x="83.85613490585592" y="87.84185499287628" as="sourcePoint" />
            <mxPoint x="139.3900000000001" y="68.7600000000001" as="targetPoint" />
            <Array as="points">
              <mxPoint x="110" y="99" />
              <mxPoint x="110" y="50" />
            </Array>
          </mxGeometry>
        </mxCell>
        <mxCell id="GuyPCth5NAUrWhtiXJ_c-32" style="edgeStyle=none;curved=1;rounded=0;orthogonalLoop=1;jettySize=auto;html=1;fontSize=12;startSize=8;endSize=8;entryX=-0.116;entryY=0.433;entryDx=0;entryDy=0;entryPerimeter=0;exitX=0.25;exitY=1;exitDx=0;exitDy=0;" edge="1" parent="1c1d494c118603dd-2" source="GuyPCth5NAUrWhtiXJ_c-72">
          <mxGeometry relative="1" as="geometry">
            <mxPoint x="54.01776695296644" y="121.01776695296633" as="sourcePoint" />
            <mxPoint x="72.86000000000013" y="169.41999999999996" as="targetPoint" />
            <Array as="points">
              <mxPoint x="73" y="140" />
            </Array>
          </mxGeometry>
        </mxCell>
        <mxCell id="GuyPCth5NAUrWhtiXJ_c-18" style="edgeStyle=none;curved=1;rounded=0;orthogonalLoop=1;jettySize=auto;html=1;entryX=0;entryY=0.5;entryDx=0;entryDy=0;fontSize=12;startSize=8;endSize=8;fillColor=#f8cecc;strokeColor=#b85450;" edge="1" parent="1c1d494c118603dd-2" source="GuyPCth5NAUrWhtiXJ_c-3" target="GuyPCth5NAUrWhtiXJ_c-37">
          <mxGeometry relative="1" as="geometry">
            <mxPoint x="197.50000000000023" y="170.0000000000001" as="targetPoint" />
            <Array as="points">
              <mxPoint x="150" y="124" />
            </Array>
          </mxGeometry>
        </mxCell>
        <mxCell id="GuyPCth5NAUrWhtiXJ_c-19" value="no" style="edgeLabel;html=1;align=center;verticalAlign=middle;resizable=0;points=[];fontSize=12;" vertex="1" connectable="0" parent="GuyPCth5NAUrWhtiXJ_c-18">
          <mxGeometry x="-0.804" y="-2" relative="1" as="geometry">
            <mxPoint x="9" y="3" as="offset" />
          </mxGeometry>
        </mxCell>
        <mxCell id="GuyPCth5NAUrWhtiXJ_c-3" value="Register?&#xa;&#xa;&#xa;" style="rhombus;" vertex="1" parent="1c1d494c118603dd-2">
          <mxGeometry x="140" y="39" width="30" height="31" as="geometry" />
        </mxCell>
        <mxCell id="GuyPCth5NAUrWhtiXJ_c-31" value="Browse Audios and Playlists" style="html=1;align=center;verticalAlign=top;rounded=1;absoluteArcSize=1;arcSize=10;dashed=0;whiteSpace=wrap;fillColor=#dae8fc;strokeColor=#6c8ebf;" vertex="1" parent="1c1d494c118603dd-2">
          <mxGeometry x="110.5" y="276" width="90" height="40" as="geometry" />
        </mxCell>
        <mxCell id="GuyPCth5NAUrWhtiXJ_c-33" value="Register" style="html=1;align=center;verticalAlign=top;rounded=1;absoluteArcSize=1;arcSize=10;dashed=0;whiteSpace=wrap;fillColor=#dae8fc;strokeColor=#6c8ebf;" vertex="1" parent="1c1d494c118603dd-2">
          <mxGeometry x="230" y="39" width="80" height="30" as="geometry" />
        </mxCell>
        <mxCell id="GuyPCth5NAUrWhtiXJ_c-6" style="edgeStyle=none;curved=1;rounded=0;orthogonalLoop=1;jettySize=auto;html=1;fontSize=12;startSize=8;endSize=8;fillColor=#d5e8d4;strokeColor=#82b366;" edge="1" parent="1c1d494c118603dd-2" source="GuyPCth5NAUrWhtiXJ_c-3" target="GuyPCth5NAUrWhtiXJ_c-33">
          <mxGeometry relative="1" as="geometry" />
        </mxCell>
        <mxCell id="GuyPCth5NAUrWhtiXJ_c-7" value="yes" style="edgeLabel;html=1;align=center;verticalAlign=middle;resizable=0;points=[];fontSize=12;" vertex="1" connectable="0" parent="GuyPCth5NAUrWhtiXJ_c-6">
          <mxGeometry x="-0.4178" y="-1" relative="1" as="geometry">
            <mxPoint x="4" y="-11" as="offset" />
          </mxGeometry>
        </mxCell>
        <mxCell id="GuyPCth5NAUrWhtiXJ_c-37" value="Sign in" style="html=1;align=center;verticalAlign=top;rounded=1;absoluteArcSize=1;arcSize=10;dashed=0;whiteSpace=wrap;fillColor=#dae8fc;strokeColor=#6c8ebf;" vertex="1" parent="1c1d494c118603dd-2">
          <mxGeometry x="230" y="109" width="80" height="30" as="geometry" />
        </mxCell>
        <mxCell id="GuyPCth5NAUrWhtiXJ_c-44" style="edgeStyle=none;curved=1;rounded=0;orthogonalLoop=1;jettySize=auto;html=1;fontSize=12;startSize=8;endSize=8;exitX=0.666;exitY=0.42;exitDx=0;exitDy=0;exitPerimeter=0;entryX=0;entryY=0.5;entryDx=0;entryDy=0;" edge="1" parent="1c1d494c118603dd-2" source="GuyPCth5NAUrWhtiXJ_c-69" target="GuyPCth5NAUrWhtiXJ_c-31">
          <mxGeometry relative="1" as="geometry">
            <mxPoint x="70" y="175" as="sourcePoint" />
            <Array as="points">
              <mxPoint x="70" y="296" />
            </Array>
          </mxGeometry>
        </mxCell>
        <mxCell id="GuyPCth5NAUrWhtiXJ_c-63" style="edgeStyle=none;curved=1;rounded=0;orthogonalLoop=1;jettySize=auto;html=1;fontSize=12;startSize=8;endSize=8;entryX=0;entryY=0.5;entryDx=0;entryDy=0;" edge="1" parent="1c1d494c118603dd-2" target="GuyPCth5NAUrWhtiXJ_c-64">
          <mxGeometry relative="1" as="geometry">
            <mxPoint x="40" y="310.0000000000001" as="targetPoint" />
            <mxPoint x="40" y="175" as="sourcePoint" />
            <Array as="points">
              <mxPoint x="40" y="390" />
            </Array>
          </mxGeometry>
        </mxCell>
        <mxCell id="GuyPCth5NAUrWhtiXJ_c-64" value="Search Creator" style="html=1;align=center;verticalAlign=top;rounded=1;absoluteArcSize=1;arcSize=10;dashed=0;whiteSpace=wrap;fillColor=#dae8fc;strokeColor=#6c8ebf;" vertex="1" parent="1c1d494c118603dd-2">
          <mxGeometry x="77.5" y="382" width="122.5" height="30" as="geometry" />
        </mxCell>
        <mxCell id="GuyPCth5NAUrWhtiXJ_c-103" style="edgeStyle=none;curved=1;rounded=0;orthogonalLoop=1;jettySize=auto;html=1;entryX=0.5;entryY=0;entryDx=0;entryDy=0;fontSize=12;startSize=8;endSize=8;" edge="1" parent="1c1d494c118603dd-2" source="GuyPCth5NAUrWhtiXJ_c-68" target="GuyPCth5NAUrWhtiXJ_c-97">
          <mxGeometry relative="1" as="geometry">
            <Array as="points">
              <mxPoint x="250" y="500" />
              <mxPoint x="180" y="480" />
            </Array>
          </mxGeometry>
        </mxCell>
        <mxCell id="GuyPCth5NAUrWhtiXJ_c-68" value="" style="rounded=0;whiteSpace=wrap;html=1;fillColor=#000000;rotation=45;" vertex="1" parent="1c1d494c118603dd-2">
          <mxGeometry x="240" y="470" width="80" height="5" as="geometry" />
        </mxCell>
        <mxCell id="GuyPCth5NAUrWhtiXJ_c-69" value="" style="rounded=0;whiteSpace=wrap;html=1;fillColor=#000000;rotation=0;" vertex="1" parent="1c1d494c118603dd-2">
          <mxGeometry x="20" y="170" width="80" height="5" as="geometry" />
        </mxCell>
        <mxCell id="GuyPCth5NAUrWhtiXJ_c-72" value="" style="rounded=0;whiteSpace=wrap;html=1;fillColor=#000000;rotation=-45;" vertex="1" parent="1c1d494c118603dd-2">
          <mxGeometry x="30.5" y="97" width="80" height="5" as="geometry" />
        </mxCell>
        <mxCell id="GuyPCth5NAUrWhtiXJ_c-112" style="edgeStyle=none;curved=1;rounded=0;orthogonalLoop=1;jettySize=auto;html=1;fontSize=12;startSize=8;endSize=8;entryX=0;entryY=0;entryDx=97.5;entryDy=0;entryPerimeter=0;" edge="1" parent="1c1d494c118603dd-2" source="GuyPCth5NAUrWhtiXJ_c-76" target="GuyPCth5NAUrWhtiXJ_c-113">
          <mxGeometry relative="1" as="geometry">
            <mxPoint x="190" y="800" as="targetPoint" />
            <Array as="points">
              <mxPoint x="210" y="780" />
            </Array>
          </mxGeometry>
        </mxCell>
        <mxCell id="GuyPCth5NAUrWhtiXJ_c-76" value="" style="rounded=0;whiteSpace=wrap;html=1;fillColor=#000000;rotation=45;" vertex="1" parent="1c1d494c118603dd-2">
          <mxGeometry x="210" y="740" width="80" height="5" as="geometry" />
        </mxCell>
        <mxCell id="GuyPCth5NAUrWhtiXJ_c-107" style="edgeStyle=none;curved=1;rounded=0;orthogonalLoop=1;jettySize=auto;html=1;fontSize=12;startSize=8;endSize=8;exitX=0.25;exitY=1;exitDx=0;exitDy=0;entryX=1;entryY=0.5;entryDx=0;entryDy=0;" edge="1" parent="1c1d494c118603dd-2" source="GuyPCth5NAUrWhtiXJ_c-80" target="GuyPCth5NAUrWhtiXJ_c-120">
          <mxGeometry relative="1" as="geometry">
            <mxPoint x="270" y="590" as="targetPoint" />
          </mxGeometry>
        </mxCell>
        <mxCell id="GuyPCth5NAUrWhtiXJ_c-108" style="edgeStyle=none;curved=1;rounded=0;orthogonalLoop=1;jettySize=auto;html=1;entryX=0.25;entryY=0;entryDx=0;entryDy=0;fontSize=12;startSize=8;endSize=8;exitX=0.75;exitY=1;exitDx=0;exitDy=0;" edge="1" parent="1c1d494c118603dd-2" source="GuyPCth5NAUrWhtiXJ_c-80" target="GuyPCth5NAUrWhtiXJ_c-76">
          <mxGeometry relative="1" as="geometry">
            <Array as="points">
              <mxPoint x="270" y="681" />
            </Array>
          </mxGeometry>
        </mxCell>
        <mxCell id="GuyPCth5NAUrWhtiXJ_c-80" value="" style="rounded=0;whiteSpace=wrap;html=1;fillColor=#000000;rotation=90;" vertex="1" parent="1c1d494c118603dd-2">
          <mxGeometry x="270" y="658.5" width="80" height="5" as="geometry" />
        </mxCell>
        <mxCell id="GuyPCth5NAUrWhtiXJ_c-97" value="Select Audio" style="html=1;align=center;verticalAlign=top;rounded=1;absoluteArcSize=1;arcSize=10;dashed=0;whiteSpace=wrap;fillColor=#dae8fc;strokeColor=#6c8ebf;" vertex="1" parent="1c1d494c118603dd-2">
          <mxGeometry x="140" y="540" width="80" height="30" as="geometry" />
        </mxCell>
        <mxCell id="GuyPCth5NAUrWhtiXJ_c-113" value="&lt;font style=&quot;font-size: 11px;&quot;&gt;Register User Activity&lt;/font&gt;" style="html=1;shape=mxgraph.infographic.ribbonSimple;notch1=0;notch2=20;align=center;verticalAlign=middle;fontSize=14;fontStyle=0;fillColor=#FFFFFF;whiteSpace=wrap;" vertex="1" parent="1c1d494c118603dd-2">
          <mxGeometry x="105" y="800" width="150" height="40" as="geometry" />
        </mxCell>
        <mxCell id="GuyPCth5NAUrWhtiXJ_c-120" value="" style="shape=sumEllipse;perimeter=ellipsePerimeter;html=1;backgroundOutline=1;" vertex="1" parent="1c1d494c118603dd-2">
          <mxGeometry x="160" y="620" width="40" height="40" as="geometry" />
        </mxCell>
        <mxCell id="1c1d494c118603dd-3" value="Logic" style="swimlane;html=1;startSize=20;" parent="1c1d494c118603dd-1" vertex="1">
          <mxGeometry x="360" y="20" width="200" height="860" as="geometry" />
        </mxCell>
        <mxCell id="GuyPCth5NAUrWhtiXJ_c-10" value="Registration Success?&#xa;&#xa;&#xa;&#xa;" style="rhombus;" vertex="1" parent="1c1d494c118603dd-3">
          <mxGeometry x="85" y="89" width="30" height="31" as="geometry" />
        </mxCell>
        <mxCell id="GuyPCth5NAUrWhtiXJ_c-23" value="Signin Success?&#xa;&#xa;&#xa;&#xa;" style="rhombus;" vertex="1" parent="1c1d494c118603dd-3">
          <mxGeometry x="85" y="200" width="30" height="31" as="geometry" />
        </mxCell>
        <mxCell id="GuyPCth5NAUrWhtiXJ_c-89" value="Preview Audio Results" style="html=1;align=center;verticalAlign=top;rounded=1;absoluteArcSize=1;arcSize=10;dashed=0;whiteSpace=wrap;fillColor=#dae8fc;strokeColor=#6c8ebf;" vertex="1" parent="1c1d494c118603dd-3">
          <mxGeometry x="32.5" y="326" width="135" height="30" as="geometry" />
        </mxCell>
        <mxCell id="GuyPCth5NAUrWhtiXJ_c-96" value="Preview Creator Page" style="html=1;align=center;verticalAlign=top;rounded=1;absoluteArcSize=1;arcSize=10;dashed=0;whiteSpace=wrap;fillColor=#dae8fc;strokeColor=#6c8ebf;" vertex="1" parent="1c1d494c118603dd-3">
          <mxGeometry x="32.5" y="435" width="135" height="30" as="geometry" />
        </mxCell>
        <mxCell id="GuyPCth5NAUrWhtiXJ_c-60" value="Play Audio" style="html=1;align=center;verticalAlign=top;rounded=1;absoluteArcSize=1;arcSize=10;dashed=0;whiteSpace=wrap;fillColor=#dae8fc;strokeColor=#6c8ebf;" vertex="1" parent="1c1d494c118603dd-3">
          <mxGeometry x="55" y="540" width="90" height="30" as="geometry" />
        </mxCell>
        <mxCell id="GuyPCth5NAUrWhtiXJ_c-114" value="Fetch Search Results" style="html=1;align=center;verticalAlign=top;rounded=1;absoluteArcSize=1;arcSize=10;dashed=0;whiteSpace=wrap;fillColor=#dae8fc;strokeColor=#6c8ebf;" vertex="1" parent="1c1d494c118603dd-3">
          <mxGeometry x="32.5" y="281" width="130" height="30" as="geometry" />
        </mxCell>
        <mxCell id="GuyPCth5NAUrWhtiXJ_c-116" value="&lt;span style=&quot;font-size: 11px;&quot;&gt;Fetch User Results&lt;/span&gt;" style="html=1;align=center;verticalAlign=top;rounded=1;absoluteArcSize=1;arcSize=10;dashed=0;whiteSpace=wrap;fillColor=#dae8fc;strokeColor=#6c8ebf;" vertex="1" parent="1c1d494c118603dd-3">
          <mxGeometry x="37.5" y="382" width="130" height="30" as="geometry" />
        </mxCell>
        <mxCell id="GuyPCth5NAUrWhtiXJ_c-8" value="API Interface" style="swimlane;html=1;startSize=20;" vertex="1" parent="1c1d494c118603dd-1">
          <mxGeometry x="560" y="20" width="200" height="860" as="geometry" />
        </mxCell>
        <mxCell id="GuyPCth5NAUrWhtiXJ_c-9" value="&lt;span style=&quot;font-size: 11px;&quot;&gt;Backend Activity&lt;/span&gt;" style="html=1;shape=mxgraph.infographic.ribbonSimple;notch1=0;notch2=20;align=center;verticalAlign=middle;fontSize=14;fontStyle=0;fillColor=#FFFFFF;whiteSpace=wrap;" vertex="1" parent="GuyPCth5NAUrWhtiXJ_c-8">
          <mxGeometry x="25" y="30" width="150" height="40" as="geometry" />
        </mxCell>
        <mxCell id="GuyPCth5NAUrWhtiXJ_c-20" value="&lt;span style=&quot;font-size: 11px;&quot;&gt;Backend Activity&lt;/span&gt;" style="html=1;shape=mxgraph.infographic.ribbonSimple;notch1=0;notch2=20;align=center;verticalAlign=middle;fontSize=14;fontStyle=0;fillColor=#FFFFFF;whiteSpace=wrap;" vertex="1" parent="GuyPCth5NAUrWhtiXJ_c-8">
          <mxGeometry x="25" y="130" width="150" height="40" as="geometry" />
        </mxCell>
        <mxCell id="GuyPCth5NAUrWhtiXJ_c-88" value="&lt;span style=&quot;font-size: 11px;&quot;&gt;Backend Activity&lt;/span&gt;" style="html=1;shape=mxgraph.infographic.ribbonSimple;notch1=0;notch2=20;align=center;verticalAlign=middle;fontSize=14;fontStyle=0;fillColor=#FFFFFF;whiteSpace=wrap;" vertex="1" parent="GuyPCth5NAUrWhtiXJ_c-8">
          <mxGeometry x="30" y="276" width="150" height="40" as="geometry" />
        </mxCell>
        <mxCell id="GuyPCth5NAUrWhtiXJ_c-93" value="&lt;font style=&quot;font-size: 11px;&quot;&gt;Backend Activity&lt;/font&gt;" style="html=1;shape=mxgraph.infographic.ribbonSimple;notch1=0;notch2=20;align=center;verticalAlign=middle;fontSize=14;fontStyle=0;fillColor=#FFFFFF;whiteSpace=wrap;" vertex="1" parent="GuyPCth5NAUrWhtiXJ_c-8">
          <mxGeometry x="30" y="377" width="150" height="40" as="geometry" />
        </mxCell>
        <mxCell id="GuyPCth5NAUrWhtiXJ_c-90" style="edgeStyle=none;curved=0;rounded=0;orthogonalLoop=1;jettySize=auto;html=1;entryX=1;entryY=0.5;entryDx=0;entryDy=0;fontSize=12;startSize=8;endSize=8;exitX=1;exitY=0.5;exitDx=0;exitDy=0;exitPerimeter=0;" edge="1" parent="1c1d494c118603dd-1" source="GuyPCth5NAUrWhtiXJ_c-88" target="GuyPCth5NAUrWhtiXJ_c-89">
          <mxGeometry relative="1" as="geometry">
            <Array as="points">
              <mxPoint x="750" y="316" />
              <mxPoint x="750" y="361" />
            </Array>
          </mxGeometry>
        </mxCell>
        <mxCell id="GuyPCth5NAUrWhtiXJ_c-95" style="edgeStyle=none;curved=0;rounded=0;orthogonalLoop=1;jettySize=auto;html=1;entryX=1;entryY=0.5;entryDx=0;entryDy=0;fontSize=12;startSize=8;endSize=8;exitX=1;exitY=0.5;exitDx=0;exitDy=0;exitPerimeter=0;" edge="1" parent="1c1d494c118603dd-1" source="GuyPCth5NAUrWhtiXJ_c-93" target="GuyPCth5NAUrWhtiXJ_c-96">
          <mxGeometry relative="1" as="geometry">
            <mxPoint x="743" y="450" as="sourcePoint" />
            <mxPoint x="530" y="470" as="targetPoint" />
            <Array as="points">
              <mxPoint x="753" y="417" />
              <mxPoint x="753" y="470" />
            </Array>
          </mxGeometry>
        </mxCell>
        <mxCell id="GuyPCth5NAUrWhtiXJ_c-101" style="edgeStyle=none;curved=1;rounded=0;orthogonalLoop=1;jettySize=auto;html=1;entryX=0.75;entryY=0;entryDx=0;entryDy=0;fontSize=12;startSize=8;endSize=8;" edge="1" parent="1c1d494c118603dd-1" source="GuyPCth5NAUrWhtiXJ_c-96" target="GuyPCth5NAUrWhtiXJ_c-68">
          <mxGeometry relative="1" as="geometry">
            <Array as="points">
              <mxPoint x="330" y="470" />
            </Array>
          </mxGeometry>
        </mxCell>
        <mxCell id="GuyPCth5NAUrWhtiXJ_c-102" style="edgeStyle=none;curved=1;rounded=0;orthogonalLoop=1;jettySize=auto;html=1;entryX=0.25;entryY=0;entryDx=0;entryDy=0;fontSize=12;startSize=8;endSize=8;" edge="1" parent="1c1d494c118603dd-1" source="GuyPCth5NAUrWhtiXJ_c-89" target="GuyPCth5NAUrWhtiXJ_c-68">
          <mxGeometry relative="1" as="geometry">
            <Array as="points">
              <mxPoint x="320" y="350" />
            </Array>
          </mxGeometry>
        </mxCell>
        <mxCell id="GuyPCth5NAUrWhtiXJ_c-104" style="edgeStyle=none;curved=1;rounded=0;orthogonalLoop=1;jettySize=auto;html=1;fontSize=12;startSize=8;endSize=8;entryX=0;entryY=0.5;entryDx=0;entryDy=0;" edge="1" parent="1c1d494c118603dd-1" source="GuyPCth5NAUrWhtiXJ_c-97" target="GuyPCth5NAUrWhtiXJ_c-60">
          <mxGeometry relative="1" as="geometry">
            <mxPoint x="409.9999999999998" y="580" as="targetPoint" />
          </mxGeometry>
        </mxCell>
        <mxCell id="GuyPCth5NAUrWhtiXJ_c-105" style="edgeStyle=none;curved=1;rounded=0;orthogonalLoop=1;jettySize=auto;html=1;entryX=0.5;entryY=0;entryDx=0;entryDy=0;fontSize=12;startSize=8;endSize=8;exitX=0.5;exitY=1;exitDx=0;exitDy=0;" edge="1" parent="1c1d494c118603dd-1" source="GuyPCth5NAUrWhtiXJ_c-60" target="GuyPCth5NAUrWhtiXJ_c-80">
          <mxGeometry relative="1" as="geometry">
            <Array as="points">
              <mxPoint x="460" y="680" />
            </Array>
          </mxGeometry>
        </mxCell>
        <mxCell id="GuyPCth5NAUrWhtiXJ_c-115" style="edgeStyle=none;curved=1;rounded=0;orthogonalLoop=1;jettySize=auto;html=1;entryX=0;entryY=0;entryDx=0;entryDy=20;entryPerimeter=0;fontSize=12;startSize=8;endSize=8;" edge="1" parent="1c1d494c118603dd-1" source="GuyPCth5NAUrWhtiXJ_c-114" target="GuyPCth5NAUrWhtiXJ_c-88">
          <mxGeometry relative="1" as="geometry" />
        </mxCell>
        <mxCell id="GuyPCth5NAUrWhtiXJ_c-92" style="edgeStyle=none;curved=1;rounded=0;orthogonalLoop=1;jettySize=auto;html=1;fontSize=12;startSize=8;endSize=8;entryX=0;entryY=0.5;entryDx=0;entryDy=0;" edge="1" parent="1c1d494c118603dd-1" source="GuyPCth5NAUrWhtiXJ_c-64" target="GuyPCth5NAUrWhtiXJ_c-116">
          <mxGeometry relative="1" as="geometry">
            <mxPoint x="589.9999999999998" y="417" as="targetPoint" />
          </mxGeometry>
        </mxCell>
        <mxCell id="GuyPCth5NAUrWhtiXJ_c-119" style="edgeStyle=none;curved=1;rounded=0;orthogonalLoop=1;jettySize=auto;html=1;entryX=0;entryY=0;entryDx=0;entryDy=20;entryPerimeter=0;fontSize=12;startSize=8;endSize=8;" edge="1" parent="1c1d494c118603dd-1" source="GuyPCth5NAUrWhtiXJ_c-116" target="GuyPCth5NAUrWhtiXJ_c-93">
          <mxGeometry relative="1" as="geometry" />
        </mxCell>
      </root>
    </mxGraphModel>
  </diagram>
</mxfile>
